<svg id="Layer_1" data-name="Layer 1" xmlns="http://www.w3.org/2000/svg" viewBox="0 0 355.83 393.69"><defs><style>.cls-1{fill:#fff;}.cls-2{fill:none;stroke:#231f20;stroke-miterlimit:10;stroke-width:3px;}</style></defs><title>play-store</title><path class="cls-1" d="M1.51,359.35C-.16,355.67-.4,351.8-.4,347.79q.08-150.73,0-301.47c0-4.75.13-9.38,3.22-13.35,2.14,2,4.36,3.86,6.42,5.92q72.62,72.57,145.12,145.25c4.28,4.3,10.19,6.73,13.39,12.16-.89,6.19-7,7.47-10.58,11-21,20.67-41.65,41.73-63.15,62-30.78,29-60.48,59.06-90.65,88.67A16.89,16.89,0,0,1,1.51,359.35Z"/><path class="cls-1" d="M1.51,359.35A16.89,16.89,0,0,0,3.39,358C33.56,328.35,63.25,298.24,94,269.28c21.5-20.22,42.12-41.29,63.15-62,3.63-3.56,9.69-4.85,10.58-11a3.17,3.17,0,0,1,1.32.26q34.84,35.11,69.67,70.23c4.63,4.69,9,9.64,13.49,14.48-7.75,7-17.52,10.76-26.43,15.89q-64,36.84-128.23,73.29c-11.25,6.4-22.51,12.87-34.14,18.52C38.14,401.23,6.53,385.52,1.51,359.35Z"/><path class="cls-1" d="M169.09,196.56a3.17,3.17,0,0,0-1.32-.26c-3.2-5.43-9.11-7.85-13.39-12.16Q82,111.36,9.26,38.89C7.21,36.84,5,34.94,2.85,33c2.46-14.49,16.72-27,32-30.31,15-3.24,27.56,2.15,39.85,9,21.91,12.28,43.58,25,65.38,37.49q44.15,25.29,88.34,50.49c7.6,4.33,15.89,7.48,22.48,13.49.3,4-2.37,6.19-4.86,8.61q-30.78,29.92-61.51,59.89C179.4,186.65,174.23,191.59,169.09,196.56Z"/><path class="cls-1" d="M169.09,196.56c5.15-5,10.32-9.91,15.44-14.9q30.76-29.94,61.51-59.89c2.48-2.42,5.16-4.66,4.86-8.61,13.6,5.38,25.47,13.93,38.2,20.89,14.83,8.11,29.26,17,44,25.27,22.52,12.69,27.2,43.13,15.23,62-6.16,9.72-15.45,15.53-25,21-20.31,11.63-40.75,23-61.19,34.42-3.15,1.76-6.58,3-9.88,4.5-4.49-4.83-8.85-9.79-13.49-14.48Q204,231.61,169.09,196.56Z"/><line class="cls-2" x1="2.85" y1="32.97" x2="252.24" y2="281.26"/><line class="cls-2" x1="1.51" y1="359.35" x2="250.89" y2="113.16"/></svg>